Coordinates
version=1
nRows=10
nColumns=63
inDegrees=yes

Units are S.I. units (second, meters, Newtons, ...)
If the header above contains a line with 'inDegrees', this indicates whether rotational values are in degrees (yes) or radians (no).

endheader
time	pelvis_tilt	pelvis_list	pelvis_rotation	pelvis_tx	pelvis_ty	pelvis_tz	hip_flexion_r	hip_adduction_r	hip_rotation_r	knee_angle_r	knee_angle_r_beta	ankle_angle_r	subtalar_angle_r	mtp_angle_r	hip_flexion_l	hip_adduction_l	hip_rotation_l	knee_angle_l	knee_angle_l_beta	ankle_angle_l	subtalar_angle_l	mtp_angle_l	L5_S1_Flex_Ext	L5_S1_Lat_Bending	L5_S1_axial_rotation	L4_L5_Flex_Ext	L4_L5_Lat_Bending	L4_L5_axial_rotation	L3_L4_Flex_Ext	L3_L4_Lat_Bending	L3_L4_axial_rotation	L2_L3_Flex_Ext	L2_L3_Lat_Bending	L2_L3_axial_rotation	L1_L2_Flex_Ext	L1_L2_Lat_Bending	L1_L2_axial_rotation	L1_T12_Flex_Ext	L1_T12_Lat_Bending	L1_T12_axial_rotation	Abs_r3	Abs_r2	Abs_r1	Abs_t1	Abs_t2	neck_flexion	neck_bending	neck_rotation	arm_flex_r	arm_add_r	arm_rot_r	elbow_flex_r	pro_sup_r	wrist_flex_r	wrist_dev_r	arm_flex_l	arm_add_l	arm_rot_l	elbow_flex_l	pro_sup_l	wrist_flex_l	wrist_dev_l
      1.25000000	     -0.47701204	     -7.97479597	     89.13682474	      0.23131976	      0.83474647	      0.71880518	      6.48381374	     -0.19752235	      6.77379634	     11.28528776	      0.19696543	     34.99657013	     -7.29301401	      0.00000000	      4.13484550	     -1.22011423	     21.66903294	      0.59958172	      0.01046468	     33.12454511	    -12.46175406	      0.00000000	      0.45437783	      0.57439809	      1.51598361	      0.84382507	      0.76394946	      1.61073258	      0.74649734	      1.39659152	      1.61073258	      0.51930842	      1.39659152	      1.32648566	      0.42193525	      1.17131259	      1.23173668	      0.25963149	      0.88974264	      1.13698770	      3.24557540	      6.49770609	      8.43144602	      0.00000000	      0.00000000	     28.40579662	     -9.76282412	      5.93285089	      6.16786433	    -16.39301189	    132.96261054	     11.28545558	      5.34272182	      1.87858595	      1.48910745	     14.56255398	    -12.24754323	     78.15623749	     31.22846405	     64.25859748	     -3.85906020	     -8.45747757
      1.26666667	     -0.45308221	     -8.04846340	     89.20275504	      0.23083205	      0.83476655	      0.71866890	      6.62210416	     -0.23353129	      6.32360766	     11.42666920	      0.19943300	     35.13884653	     -6.80034514	      0.00000000	      4.24461335	     -1.20706758	     22.13870738	      0.60426129	      0.01054635	     33.29430798	    -12.68749445	      0.00000000	      0.46946550	      0.59250689	      1.45821789	      0.87184437	      0.78803416	      1.54935650	      0.77128486	      1.44062125	      1.54935650	      0.53655212	      1.44062125	      1.27594065	      0.43594566	      1.20824004	      1.18480203	      0.26825258	      0.91779317	      1.09366341	      3.35334510	      6.70255641	      8.11017042	      0.00000000	      0.00000000	     28.40360361	     -8.89716475	      7.81348254	      6.33402469	    -16.41035590	    133.79438953	     11.13615963	      5.55492211	      1.60384405	      1.33432301	     14.89802351	    -11.55710681	     80.15496023	     30.00069564	     63.31481130	     -4.01841091	     -9.33696669
      1.28333333	     -0.51728400	     -7.99580772	     88.94168926	      0.23096266	      0.83496134	      0.71801813	      6.66507307	     -0.35425914	      5.73280514	     11.64441140	      0.20323332	     35.45423965	     -5.68555036	      0.00000000	      4.18444404	     -1.14118071	     20.51465642	      0.64409158	      0.01124152	     34.11344160	    -10.39297364	      0.00000000	      0.47055813	      0.59907768	      1.46531977	      0.87387351	      0.79677331	      1.55690225	      0.77307996	      1.45659747	      1.55690225	      0.53780089	      1.45659747	      1.28215480	      0.43696028	      1.22163920	      1.19057231	      0.26887692	      0.92797132	      1.09898983	      3.36114968	      6.77688652	      8.14966895	      0.00000000	      0.00000000	     28.39736914	     -7.82420333	      9.96542269	      6.39733911	    -16.47670760	    133.66890597	     11.09418678	      7.05858102	      1.39394187	      1.07002244	     14.93797635	    -11.21867923	     80.74927176	     29.40003172	     65.42489186	     -6.90178358	    -10.77404559
      1.30000000	     -0.59050663	     -7.78364188	     88.42478444	      0.23188156	      0.83522645	      0.71688583	      6.46672817	     -0.34069951	      6.44142123	     11.72644134	      0.20466501	     35.51448409	     -5.92740330	      0.00000000	      3.86903055	     -1.09488058	     20.90053464	      0.62782870	      0.01095768	     34.26557460	    -11.27350248	      0.00000000	      0.45562628	      0.59608763	      1.53863312	      0.84614357	      0.79279655	      1.63479769	      0.74854842	      1.44932747	      1.63479769	      0.52073528	      1.44932747	      1.34630398	      0.42309456	      1.21554190	      1.25013941	      0.26034486	      0.92333974	      1.15397484	      3.25449297	      6.74306251	      8.55741581	      0.00000000	      0.00000000	     28.38395270	     -6.64095173	     11.89446028	      6.50783377	    -16.27516853	    136.73444725	     10.75765796	      7.75610698	      1.59740887	      0.11514530	     14.71098308	    -11.26459673	     79.51573452	     29.54108237	     69.86427750	    -12.87831722	    -11.97002206
      1.31666667	     -0.79439748	     -7.33514629	     87.98730116	      0.23328502	      0.83564456	      0.71516450	      5.96049621	     -0.40229471	      7.47284816	     11.79608318	      0.20588049	     35.49530416	     -6.84257319	      0.00000000	      3.25868567	     -0.92845110	     21.14897218	      0.60591902	      0.01057528	     34.35066371	    -11.98347536	      0.00000000	      0.41297349	      0.56427070	      1.59887726	      0.76693307	      0.75048003	      1.69880709	      0.67847415	      1.37196777	      1.69880709	      0.47198741	      1.37196777	      1.39901760	      0.38348719	      1.15066081	      1.29908777	      0.23597305	      0.87405531	      1.19915794	      2.94982837	      6.38314299	      8.89247565	      0.00000000	      0.00000000	     28.36883707	     -5.65662119	     13.19845488	      6.59873625	    -15.55991807	    144.32516620	      9.81756398	      5.03670809	      2.38728692	     -1.10024114	     12.81526066	    -11.87730843	     68.86992825	     31.18399095	     82.09778570	    -16.15307842	     -9.97499589
      1.33333333	     -0.96539181	     -6.78824901	     87.22999067	      0.23528584	      0.83625774	      0.71373963	      5.47064655	     -0.45534972	      8.17560740	     12.03374541	      0.21002848	     35.68559762	     -6.83196906	      0.00000000	      2.52242754	     -0.80614808	     20.45352657	      0.60792250	      0.01061025	     34.53295015	    -12.01704806	      0.00000000	      0.36257620	      0.53255376	      1.86581506	      0.67334026	      0.70829650	      1.98242851	      0.59567644	      1.29485121	      1.98242851	      0.41438834	      1.29485121	      1.63258818	      0.33668826	      1.08598363	      1.51597474	      0.20717604	      0.82492577	      1.39936130	      2.58984552	      6.02435464	     10.37710364	      0.00000000	      0.00000000	     28.34115709	     -5.67707102	     13.08010913	      6.15560391	    -15.26017254	    146.01048741	      9.35333028	      5.59825977	      2.61957510	     -1.85149539	     12.74579129	    -12.31166992	     64.87518446	     32.17457239	     84.48696435	    -19.50884383	    -11.24390066
      1.35000000	     -1.15985736	     -6.12398049	     86.61069692	      0.23727401	      0.83715309	      0.71243840	      4.78185270	     -0.51958099	      9.19080710	     12.13550246	      0.21180447	     35.66687166	     -7.39760325	      0.00000000	      1.67995830	     -0.64004926	     19.46263416	      0.62259335	      0.01086630	     34.67064840	    -11.60801557	      0.00000000	      0.29257941	      0.49590215	      2.13407911	      0.54334921	      0.65954986	      2.26745906	      0.48067871	      1.20573649	      2.26745906	      0.33438900	      1.20573649	      1.86731922	      0.27168924	      1.01124366	      1.73393928	      0.16717987	      0.76815243	      1.60055933	      2.08986544	      5.60974430	     11.86910779	      0.00000000	      0.00000000	     28.30696877	     -5.97892480	     12.40590286	      5.70555694	    -14.81916163	    149.47058794	      8.58738046	      5.12661203	      3.00330390	     -2.77251133	     11.83707014	    -13.26896671	     56.28708034	     35.27780858	     86.98138557	    -17.56942164	    -10.35278181
      1.36666667	     -1.28784154	     -5.49170667	     85.94592324	      0.23932606	      0.83815727	      0.71151330	      4.18523768	     -0.54345556	     10.08092354	     12.31839544	      0.21499656	     35.65700643	     -7.67101696	      0.00000000	      0.87712924	     -0.53398057	     18.55433499	      0.63906495	      0.01115379	     34.72931799	    -11.37963939	      0.00000000	      0.22214048	      0.46846649	      2.45203271	      0.41253708	      0.62306043	      2.60528476	      0.36495459	      1.13902942	      2.60528476	      0.25388435	      1.13902942	      2.14552862	      0.20627965	      0.95529686	      1.99227658	      0.12693107	      0.72565459	      1.83902453	      1.58672721	      5.29938662	     13.63747034	      0.00000000	      0.00000000	     28.25867751	     -7.00189968	     10.90966372	      5.12767363	    -14.44047419	    152.35441545	      7.74921664	      4.87407050	      3.24830012	     -3.51411821	     10.65502898	    -14.37021368	     47.39842806	     40.01559912	     87.74811791	    -14.47951925	     -7.91467208
      1.38333333	     -1.34592805	     -4.91246655	     85.40537722	      0.24101905	      0.83919913	      0.71063446	      3.65403710	     -0.52607814	     10.87215653	     12.52916842	      0.21867524	     35.65077689	     -7.95527879	      0.00000000	      0.14338973	     -0.47902212	     17.60758347	      0.65822355	      0.01148817	     34.78779340	    -10.94830462	      0.00000000	      0.15846431	      0.45291775	      2.70657031	      0.29428407	      0.60238060	      2.87573096	      0.26034102	      1.10122421	      2.87573096	      0.18110886	      1.10122421	      2.36824902	      0.14714996	      0.92358987	      2.19908838	      0.09054651	      0.70156959	      2.02992773	      1.13189473	      5.12349615	     15.05313210	      0.00000000	      0.00000000	     28.19610748	     -8.08508665	      9.50780168	      4.57992663	    -14.09416570	    155.52045921	      6.79302592	      4.40233668	      3.54768291	     -4.12474769	      8.86445762	    -15.20506457	     37.98032485	     45.88543395	     88.17671582	    -11.07385749	     -3.69856409
      1.40000000	     -1.33813443	     -4.38687022	     85.03869695	      0.24230715	      0.84023516	      0.70981189	      3.15460593	     -0.49353868	     11.29915808	     12.65685074	      0.22090372	     35.70790639	     -7.97081690	      0.00000000	     -0.50895529	     -0.48488866	     16.99571891	      0.67166165	      0.01172271	     34.79220058	    -10.67213882	      0.00000000	      0.10085276	      0.44624248	      2.85553851	      0.18729367	      0.59350250	      3.03400967	      0.16569101	      1.08499396	      3.03400967	      0.11526462	      1.08499396	      2.49859620	      0.09365188	      0.90997766	      2.32012504	      0.05762727	      0.69122960	      2.14165389	      0.72038121	      5.04798416	     15.88164855	      0.00000000	      0.00000000	     28.10851925	     -8.67655845	      8.77896715	      4.21523036	    -13.85917085	    157.54824466	      6.13403459	      4.50246206	      3.65565225	     -4.68910759	      6.98779528	    -15.87965708	     30.10600584	     52.24906350	     88.33413165	    -10.08118556	      1.73743270
